# xmcd CD database file
#
# Track frame offsets:
#	150
#	43319
#	83470
#	122873
#	180746
#	237550
#
# Disc length: 3929 seconds
#
# Revision: 0
# Processed by: cddbd v1.5.2PL0 Copyright (c) Steve Scherf et al.
# Submitted via: CDex 1.51
#
DISCID=4c0f5706
DTITLE=Kenny Wheeler and  Alan Skidmore - Swiss Radio Days
DYEAR=1979
DGENRE=Jazz
TTITLE0=A Simple Toon
TTITLE1=Come Sunday
TTITLE2=K and A Blues
TTITLE3=Would Jubilee Vit
TTITLE4=Red Daffodil
TTITLE5=Ruby Doo
EXTD=YEAR: 1979
EXTT0=
EXTT1=
EXTT2=
EXTT3=
EXTT4=
EXTT5=
PLAYORDER=
